<?xml version="1.0" encoding="iso-8859-1"?>
<!-- Generator: Adobe Illustrator 19.0.0, SVG Export Plug-In . SVG Version: 6.00 Build 0)  -->
<svg version="1.1" id="Capa_1" xmlns="http://www.w3.org/2000/svg" xmlns:xlink="http://www.w3.org/1999/xlink" x="0px" y="0px"
	 viewBox="0 0 512.034 512.034" style="enable-background:new 0 0 512.034 512.034;" xml:space="preserve">
<g transform="translate(0 -1)">
	<g transform="translate(1 1)">
		<path style="fill:#2296F3;" d="M171.648,56.013c11.04-3.73,22.333-6.667,33.792-8.789c1.024-1.621,2.048-3.243,3.243-4.949
			C195.866,45.463,183.445,50.071,171.648,56.013z M218.838,29.474c9.402-10.291,21.681-17.516,35.243-20.736
			c0.341-5.291,0.768-8.704,0.768-8.704C239.545,4.925,226.673,15.448,218.838,29.474z M253.995,33.485
			c-0.171-2.475-0.256-5.035-0.341-7.424c-0.085,4.267-0.085,8.96,0.256,13.824c14.689-13.33,33.456-21.3,53.248-22.613
			c1.792-4.011,3.072-6.485,3.072-6.485C286.763,4.215,265.174,21.965,253.995,33.485z M306.475,43.725
			c-0.427,1.195-0.939,2.475-1.365,3.669c10.932,2.041,21.71,4.835,32.256,8.363C327.484,50.753,317.138,46.723,306.475,43.725z"/>
		<path style="fill:#1566C0;" d="M456.918,344.098c10.475-0.425,20.495-4.397,28.416-11.264
			c-17.749-8.875-31.403-46.592-38.144-68.779v-0.085c3.352-24.912,4.75-50.048,4.181-75.179l0.256,0.427
			c94.891-56.491,34.304-139.349-2.048-177.323c-2.631-2.631-6.384-3.804-10.045-3.14c-3.661,0.664-6.763,3.081-8.302,6.468
			c-0.349,0.897-0.523,1.853-0.512,2.816c-0.256,23.467-8.704,54.443-50.347,57.088l0.341,0.427c-3.157-1.877-6.4-3.755-9.813-5.547
			c-10.773-5.654-21.989-10.42-33.536-14.251c-10.546-3.528-21.324-6.322-32.256-8.363c0.427-1.195,0.939-2.475,1.365-3.669
			c3.565-8.687,7.817-17.076,12.715-25.088c-3.946-0.907-7.983-1.365-12.032-1.365c-19.792,1.314-38.559,9.283-53.248,22.613
			c-0.341-4.864-0.341-9.557-0.256-13.824v-3.669c0.427-8.107,1.28-13.824,1.28-13.824c-0.256,0.085-0.597,0.085-0.853,0.171
			c-13.562,3.22-25.841,10.445-35.243,20.736l-0.085,0.085c-3.687,3.966-7.054,8.217-10.069,12.715
			c-1.195,1.707-2.219,3.328-3.243,4.949c-11.459,2.122-22.752,5.059-33.792,8.789c-11.252,3.782-22.181,8.462-32.683,13.995
			c-3.242,1.706-6.315,3.499-9.387,5.291l0.085-0.171c-41.643-2.645-50.091-33.621-50.347-57.088
			c-0.017-1.024-0.219-2.035-0.597-2.987c-1.576-3.334-4.677-5.692-8.311-6.32s-7.346,0.552-9.95,3.163
			C24.107,49.869-36.48,132.727,58.411,189.218l0.085-0.085c-0.535,25.016,0.863,50.036,4.181,74.837v0.085
			c-6.741,22.187-20.395,59.904-38.144,68.779c7.921,6.867,17.941,10.839,28.416,11.264c0.171,1.024,0.427,2.048,0.597,3.072
			c3.84,19.797,5.632,41.728-1.365,53.333c11.114,1.665,22.454-0.761,31.915-6.827c5.112-3.121,9.717-7.006,13.653-11.52
			c4.5,8.6,9.604,16.869,15.275,24.747c6.744,9.617,14.465,18.511,23.04,26.539l-0.256,0.256l5.291,47.019
			c1.019,9.125,6.848,17.005,15.275,20.651c3.2,1.409,6.658,2.135,10.155,2.133h37.035c10.233-0.057,19.469-6.147,23.552-15.531
			l4.779-11.264c15.29,1.593,30.704,1.593,45.995,0l4.864,11.264c4.046,9.415,13.305,15.521,23.552,15.531h36.949
			c3.459-0.011,6.881-0.707,10.069-2.048c8.53-3.596,14.442-11.533,15.445-20.736l5.291-47.019l-0.256-0.256
			c8.57-7.977,16.265-16.845,22.955-26.453c5.729-7.885,10.863-16.185,15.36-24.832c3.879,4.483,8.427,8.339,13.483,11.435
			c9.484,6.164,20.904,8.624,32.085,6.912c-6.997-11.605-5.205-33.536-1.365-53.333
			C456.491,346.146,456.747,345.122,456.918,344.098z"/>
		<path style="fill:#2296F3;" d="M453.59,346.658c-0.153,0.161-0.295,0.332-0.427,0.512c-6.352,6.69-14.953,10.793-24.149,11.52
			c-1.999,11.533-3.14,23.199-3.413,34.901c-5.056-3.095-9.604-6.952-13.483-11.435c-4.497,8.647-9.631,16.947-15.36,24.832
			c-6.69,9.608-14.385,18.476-22.955,26.453l0.256,0.256l-5.291,47.019c-1.003,9.203-6.915,17.14-15.445,20.736
			c-3.188,1.341-6.611,2.037-10.069,2.048h-36.949c-10.247-0.01-19.506-6.116-23.552-15.531l-4.864-11.264
			c-15.29,1.593-30.704,1.593-45.995,0l-4.779,11.264c-4.083,9.383-13.319,15.474-23.552,15.531h-37.035
			c-3.496,0.002-6.955-0.725-10.155-2.133c-8.427-3.646-14.256-11.526-15.275-20.651l-5.291-47.019l0.256-0.256
			c-8.575-8.028-16.296-16.921-23.04-26.539c-5.67-7.877-10.775-16.147-15.275-24.747c-3.937,4.514-8.541,8.399-13.653,11.52
			c-0.188-11.735-1.33-23.436-3.413-34.987c-9.425-0.736-18.214-5.039-24.576-12.032c15.36-9.472,27.136-49.835,32.939-73.557
			v-0.085c-2.874-26.523-4.099-53.198-3.669-79.872C10.539,137.933,47.83,59.17,78.72,15.053c0.378,0.951,0.581,1.963,0.597,2.987
			c0.256,23.467,8.704,54.443,50.347,57.088l-0.085,0.171c3.072-1.792,6.144-3.584,9.387-5.291c2.575,0.638,5.203,1.038,7.851,1.195
			l-0.085,0.171c7.872-5.792,16.206-10.929,24.917-15.36c11.04-3.73,22.333-6.667,33.792-8.789c1.024-1.621,2.048-3.243,3.243-4.949
			c1.109-0.341,2.304-0.683,3.499-0.939c1.979-4.039,4.172-7.97,6.571-11.776l0.085-0.085c9.402-10.291,21.681-17.516,35.243-20.736
			c-0.171,3.755-0.427,8.448-0.427,13.653v3.669c-0.085,4.267-0.085,8.96,0.256,13.824c14.689-13.33,33.456-21.3,53.248-22.613
			c-3.52,7.881-6.541,15.975-9.045,24.235c2.816,0.683,5.632,1.365,8.363,2.219c-0.427,1.195-0.939,2.475-1.365,3.669
			c10.932,2.041,21.71,4.835,32.256,8.363c9.097,4.518,17.778,9.829,25.941,15.872l-0.256-0.427
			c2.648-0.157,5.276-0.557,7.851-1.195c3.413,1.792,6.656,3.669,9.813,5.547l-0.341-0.427
			c41.643-2.645,50.091-33.621,50.347-57.088c-0.011-0.963,0.163-1.919,0.512-2.816c30.976,44.117,68.011,122.795-6.741,177.92
			l-0.171-0.427c0.42,26.816-0.806,53.633-3.669,80.299v0.085C426.454,296.823,438.23,337.186,453.59,346.658z"/>
		<g>
			<path style="fill:#FFFFFF;" d="M220.8,256.034c0,23.564-24.833,42.667-55.467,42.667s-55.467-19.103-55.467-42.667
				c0-42.667,24.833-42.667,55.467-42.667S220.8,256.034,220.8,256.034z"/>
			<path style="fill:#FFFFFF;" d="M289.067,256.034c0,23.564,24.833,42.667,55.467,42.667S400,279.598,400,256.034
				c0-42.667-24.833-42.667-55.467-42.667S289.067,256.034,289.067,256.034z"/>
		</g>
		<path style="fill:#37474F;" d="M313.131,383.266c0,22.272-26.027,43.349-58.197,43.349s-58.197-21.077-58.197-43.349
			c0-21.504,4.779-33.877,12.715-40.96l19.883,33.195l25.6-42.667l25.6,42.667l19.883-33.195
			C308.352,349.389,313.131,361.762,313.131,383.266z"/>
		<g>
			<path style="fill:#59474E;" d="M237.867,221.901c-4.713,0-8.533-3.821-8.533-8.533c0-4.713,3.821-8.533,8.533-8.533
				c4.711-0.005,8.529-3.822,8.533-8.533v-51.2c0-4.713,3.821-8.533,8.533-8.533s8.533,3.821,8.533,8.533v51.2
				C263.452,210.433,251.999,221.885,237.867,221.901z"/>
			<path style="fill:#59474E;" d="M272,221.901c-14.132-0.015-25.585-11.468-25.6-25.6v-51.2c0-4.713,3.821-8.533,8.533-8.533
				s8.533,3.821,8.533,8.533v51.2c0.005,4.711,3.822,8.529,8.533,8.533c4.713,0,8.533,3.821,8.533,8.533
				C280.534,218.08,276.713,221.901,272,221.901z"/>
		</g>
		<g>
			<circle style="fill:#37474F;" cx="165.334" cy="277.367" r="21.333"/>
			<circle style="fill:#37474F;" cx="344.534" cy="277.367" r="21.333"/>
		</g>
		<g>
			<path style="fill:#59474E;" d="M203.734,204.834c-2.264,0.003-4.435-0.897-6.033-2.5c-39.183-39.183-70.525-40.162-70.842-40.166
				c-4.713-0.021-8.517-3.858-8.496-8.571c0.021-4.713,3.858-8.517,8.571-8.496c1.542,0,38.183,0.513,82.833,45.167
				c2.44,2.44,3.169,6.11,1.849,9.298C210.295,202.754,207.185,204.833,203.734,204.834z"/>
			<path style="fill:#59474E;" d="M306.134,204.834c-3.451-0.001-6.562-2.08-7.882-5.268c-1.32-3.188-0.591-6.858,1.849-9.298
				c44.65-44.654,81.291-45.167,82.833-45.167c4.713,0,8.533,3.821,8.533,8.533c0,4.713-3.82,8.533-8.533,8.533
				c-0.242,0.004-31.583,0.983-70.767,40.166C310.569,203.937,308.397,204.836,306.134,204.834z"/>
			<path style="fill:#59474E;" d="M280.534,153.634h-51.2c-4.713,0-8.533-3.82-8.533-8.533s3.82-8.533,8.533-8.533h51.2
				c4.713,0,8.533,3.821,8.533,8.533S285.247,153.634,280.534,153.634z"/>
			<path style="fill:#59474E;" d="M306.134,119.501h-102.4c-4.713,0-8.533-3.821-8.533-8.533c0-4.713,3.821-8.533,8.533-8.533h102.4
				c4.713,0,8.533,3.821,8.533,8.533C314.667,115.68,310.847,119.501,306.134,119.501z"/>
		</g>
		<g>
			<path style="fill:#283593;" d="M231.894,476.706l-4.779,11.264c-4.083,9.383-13.319,15.474-23.552,15.531h-37.035
				c-13.034-0.032-23.972-9.832-25.429-22.784l-5.291-47.019l0.256-0.256C162.216,458.255,195.986,473.502,231.894,476.706z"/>
			<path style="fill:#283593;" d="M374.059,433.698l-5.291,47.019c-1.47,12.98-12.452,22.786-25.515,22.784h-36.949
				c-10.247-0.01-19.506-6.116-23.552-15.531l-4.864-11.264c35.937-3.187,69.74-18.434,95.915-43.264L374.059,433.698z"/>
		</g>
		<path style="fill:#FFE0B2;" d="M129.664,75.127c-4.378,2.569-8.622,5.36-12.715,8.363
			c-36.011,25.515-58.283,60.928-58.283,100.011c0,0-0.085,1.963-0.256,5.717c-4.523-2.731-8.704-5.461-12.544-8.277
			C-30.762,124.877,25.814,48.077,60.459,11.895c2.922-3.059,7.34-4.171,11.362-2.861c4.022,1.31,6.937,4.811,7.497,9.005
			c0.005,7.771,1.126,15.502,3.328,22.955c3.809,13.633,13.792,24.689,26.965,29.867C116.032,73.321,122.798,74.76,129.664,75.127z"
			/>
		<path style="fill:#FFECB3;" d="M116.95,83.49c-36.011,25.515-58.283,60.928-58.283,100.011c0,0-0.085,1.963-0.256,5.717
			c-4.523-2.731-8.704-5.461-12.544-8.277C11.99,130.85,53.12,72.738,82.646,40.994c3.809,13.633,13.792,24.689,26.965,29.867
			C111.384,75.427,113.86,79.688,116.95,83.49z"/>
		<path style="fill:#FFE0B2;" d="M451.627,189.218h-0.256c0-1.28-0.085-2.304-0.085-3.243c-0.085-1.621-0.085-2.475-0.085-2.475
			c0-41.216-24.747-78.336-64.256-104.021c-2.133-1.451-4.352-2.816-6.656-4.181l0.085-0.171c4.318-0.255,8.604-0.912,12.8-1.963
			c19.257-4.356,33.703-20.338,36.096-39.936c0.936-5.01,1.421-10.093,1.451-15.189c0.56-4.193,3.475-7.694,7.497-9.004
			s8.44-0.198,11.362,2.86C485.931,49.869,546.518,132.727,451.627,189.218z"/>
		<path style="fill:#FFECB3;" d="M451.286,185.975c-0.085-1.621-0.085-2.475-0.085-2.475c0-41.216-24.747-78.336-64.256-104.021
			c2.286-1.887,4.374-4.003,6.229-6.315c19.257-4.356,33.703-20.338,36.096-39.936C461.696,68.813,505.216,134.093,451.286,185.975z
			"/>
	</g>
	<g>
		<path d="M230.334,257.034c0-1.508-0.4-2.989-1.158-4.292c-1.117-1.917-27.708-46.908-62.842-46.908c-30,0-64,0-64,51.2
			c0,28.233,28.708,51.2,64,51.2S230.334,285.267,230.334,257.034z M153.534,278.367c0-7.069,5.731-12.8,12.8-12.8
			s12.8,5.731,12.8,12.8s-5.731,12.8-12.8,12.8C159.268,291.16,153.541,285.433,153.534,278.367z M195.684,283.472
			c2.197-11.806-2.891-23.78-12.916-30.391c-10.025-6.612-23.035-6.576-33.022,0.092c-9.988,6.668-15.009,18.669-12.746,30.463
			c-10.212-5.07-16.928-15.22-17.6-26.602c0-32.825,13.55-34.133,46.933-34.133c19.767,0,39.375,24.554,46.833,36.363
			C211.604,269.688,205.088,278.71,195.684,283.472z"/>
		<path d="M282.692,252.742c-0.758,1.303-1.158,2.784-1.158,4.292c0,28.233,28.708,51.2,64,51.2s64-22.967,64-51.2
			c0-51.2-34-51.2-64-51.2C310.4,205.834,283.809,250.826,282.692,252.742z M332.734,278.367c0-7.069,5.731-12.8,12.8-12.8
			s12.8,5.731,12.8,12.8s-5.731,12.8-12.8,12.8C338.468,291.16,332.741,285.433,332.734,278.367z M392.467,257.034
			c-0.672,11.382-7.387,21.532-17.599,26.602c2.3-11.813-2.711-23.853-12.714-30.544c-10.003-6.691-23.045-6.728-33.085-0.093
			c-10.04,6.635-15.119,18.647-12.885,30.473c-9.407-4.763-15.923-13.789-17.483-24.217c7.425-11.808,26.983-36.354,46.833-36.354
			C378.917,222.901,392.467,224.209,392.467,257.034z"/>
		<path d="M255.934,325.301c-31.275,0-66.717,0-66.717,58.958c0,28.112,30.55,51.863,66.717,51.863s66.717-23.75,66.717-51.863
			C322.65,325.301,287.208,325.301,255.934,325.301z M287.62,345.244l-6.769,13.536l-9.709-16.184
			C276.733,342.685,282.282,343.577,287.62,345.244z M240.726,342.595l-9.709,16.184l-6.769-13.536
			C229.585,343.577,235.135,342.685,240.726,342.595z M255.934,419.055c-28.417,0-49.65-18.371-49.65-34.796
			c-0.53-9.374,1.071-18.746,4.681-27.414l11.736,23.472c1.394,2.784,4.194,4.589,7.305,4.708c3.112,0.12,6.041-1.464,7.645-4.134
			l18.283-30.471l18.283,30.471c1.542,2.57,4.319,4.143,7.317,4.142l0.325-0.009c3.113-0.117,5.915-1.922,7.308-4.708l11.736-23.472
			c3.61,8.667,5.21,18.039,4.681,27.414C305.584,400.684,284.35,419.055,255.934,419.055z"/>
		<path d="M119.434,154.563c-0.02,4.69,3.735,8.525,8.425,8.604c0.317,0.004,31.659,0.983,70.842,40.166
			c3.339,3.288,8.706,3.267,12.019-0.047c3.314-3.314,3.335-8.68,0.047-12.019c-44.65-44.654-81.291-45.167-82.833-45.167
			C123.255,146.104,119.458,149.885,119.434,154.563z"/>
		<path d="M301.101,203.334c1.6,1.601,3.77,2.5,6.033,2.5s4.433-0.899,6.033-2.5c39.183-39.183,70.525-40.162,70.766-40.166
			c4.713,0,8.533-3.821,8.533-8.533c0-4.713-3.82-8.533-8.533-8.533c-1.542,0-38.183,0.513-82.833,45.167
			c-1.601,1.6-2.5,3.77-2.5,6.033S299.5,201.734,301.101,203.334z"/>
		<path d="M281.534,154.634c4.713,0,8.533-3.82,8.533-8.533s-3.82-8.533-8.533-8.533h-51.2c-4.713,0-8.533,3.821-8.533,8.533
			s3.82,8.533,8.533,8.533H247.4v42.667c-0.005,4.711-3.822,8.529-8.533,8.533c-4.713,0-8.533,3.821-8.533,8.533
			c0,4.713,3.821,8.533,8.533,8.533c6.319-0.02,12.404-2.394,17.067-6.658c4.663,4.265,10.748,6.639,17.067,6.658
			c4.713,0,8.533-3.821,8.533-8.533c0-4.713-3.821-8.533-8.533-8.533c-4.711-0.005-8.529-3.822-8.533-8.533v-42.667H281.534z"/>
		<path d="M204.734,120.501h102.4c4.713,0,8.533-3.821,8.533-8.533c0-4.713-3.82-8.533-8.533-8.533h-102.4
			c-4.713,0-8.533,3.821-8.533,8.533C196.2,116.68,200.021,120.501,204.734,120.501z"/>
		<path d="M50.808,194.802c-0.17,23.262,1.232,46.51,4.198,69.583c-7.789,25.37-20.489,55.419-33.289,61.815
			c-2.454,1.226-4.169,3.558-4.608,6.266c-0.439,2.708,0.451,5.462,2.392,7.401c7.671,6.803,17.107,11.303,27.222,12.981
			c3.776,20.976,3.53,36.966-0.856,44.26c-1.411,2.347-1.609,5.229-0.533,7.747c1.076,2.518,3.295,4.367,5.966,4.97
			c2.774,0.546,5.598,0.801,8.425,0.763c13.542-0.15,26.611-5.005,36.966-13.733c8.799,15.211,19.554,29.203,31.99,41.62
			l4.894,44.193c1.933,17.307,16.577,30.389,33.992,30.367h36.95c13.663,0.017,26.016-8.123,31.392-20.683l2.441-5.661
			c5.753,0.441,11.584,0.744,17.584,0.744s11.831-0.303,17.584-0.744l2.432,5.64c5.372,12.571,17.73,20.719,31.4,20.704h36.95
			c17.419,0.021,32.064-13.067,33.992-30.379l4.894-44.18c12.438-12.42,23.195-26.416,31.996-41.632
			c10.366,8.729,23.443,13.586,36.994,13.741c2.816,0.038,5.628-0.216,8.392-0.758c2.671-0.603,4.89-2.452,5.966-4.97
			c1.076-2.518,0.878-5.4-0.533-7.747c-4.386-7.294-4.632-23.285-0.855-44.262c10.114-1.68,19.55-6.178,27.222-12.98
			c1.941-1.939,2.831-4.693,2.391-7.401c-0.439-2.708-2.154-5.04-4.608-6.266c-12.799-6.396-25.498-36.443-33.287-61.81
			c2.981-23.025,4.366-46.229,4.142-69.445c29.54-18.687,46.505-41.694,50.153-68.545c6.15-45.292-26.2-89.933-54.433-119.417
			c-5.634-5.773-14.203-7.56-21.675-4.521c-6.978,2.519-11.692,9.066-11.867,16.483c-0.317,29.817-14.014,46.024-40.526,48.411
			c-20.27-11.474-42.121-19.897-64.848-24.996c2.831-6.24,6.034-12.305,9.591-18.161c1.484-2.344,1.735-5.263,0.674-7.826
			c-1.061-2.563-3.302-4.451-6.008-5.061c-20.563-3.628-41.726,1.046-58.848,12.997c0.211-5.088,0.633-9.798,1.165-13.542
			c0.387-2.741-0.579-5.498-2.591-7.399s-4.82-2.709-7.534-2.167c-22.337,5.438-41.52,19.688-53.177,39.502
			c-25.283,4.918-49.601,13.906-72.006,26.613c-26.301-2.489-39.901-18.674-40.226-48.44C88.655,11.488,83.952,4.975,77,2.467
			c-7.484-3.043-16.065-1.253-21.708,4.529C27.075,36.476-5.275,81.121,0.875,126.409C4.523,153.188,21.408,176.141,50.808,194.802z
			 M220.234,485.613c-2.691,6.289-8.876,10.363-15.717,10.354h-36.95c-8.717,0.019-16.052-6.525-17.025-15.188l-2.896-26.141
			c21.626,15.63,46.661,25.891,73.037,29.933L220.234,485.613z M344.3,495.967h-36.95c-6.848,0.007-13.038-4.077-15.725-10.375
			l-0.44-1.021c26.375-4.042,51.409-14.302,73.035-29.932l-2.895,26.128C360.358,489.435,353.022,495.985,344.3,495.967z
			 M440.25,19.209c0.009-0.454,1.008-0.85,1.017-0.854c1.046-0.462,2.264-0.291,3.142,0.442
			c20.983,21.912,55.35,64.725,49.842,105.308c-3.762,20.917-16.055,39.326-33.933,50.817c-3.092-35.742-23.458-69.1-57.483-94.508
			C426.55,71.663,439.917,50.238,440.25,19.209z M193.501,77.396c2.146,0.723,4.493,0.56,6.518-0.453
			c2.026-1.013,3.564-2.792,4.273-4.943c0.142-0.417,12.708-37.15,41.941-50.392C245.109,41.88,246.609,78.03,270.3,85.93
			c4.471,1.491,9.305-0.925,10.796-5.396c1.491-4.471-0.925-9.305-5.396-10.796c-7.139-2.379-10.573-12.936-11.916-25.028
			c12.069-10.077,26.893-16.286,42.541-17.818c-3.135,6.016-5.885,12.224-8.233,18.588c-0.083,0.227-0.041,0.457-0.104,0.685
			c-0.063,0.228-0.218,0.407-0.263,0.644c-0.017,0.337-0.013,0.674,0.013,1.01c-0.318,3.38,1.51,6.599,4.576,8.058
			c0.281,0.197,0.574,0.376,0.878,0.536c0.259,0.094,0.521,0.071,0.782,0.139c0.197,0.052,0.348,0.185,0.552,0.224
			c25.508,4.649,50.003,13.732,72.375,26.837l0.028,0.012l0.005,0.005c42.408,25.221,66.733,61.983,66.742,101.217
			c0,0.046,0.083,2.033,0.158,5.567l0.005,0.023l-0.005,0.031c0.384,16.586-0.135,33.181-1.554,49.71
			c-0.193,0.032-0.378-0.027-0.571,0.019c-4.585,1.082-7.426,5.672-6.35,10.258c1.6,6.779,14.55,59.525,36.433,82.696
			c-9.408,4.183-26.3,7.183-49.333-6.633c-2.614-1.569-5.866-1.624-8.532-0.145c-2.666,1.479-4.34,4.268-4.392,7.317
			c-0.052,3.048,1.527,5.893,4.141,7.462c10.346,6.521,21.989,10.707,34.118,12.269c-2.638,13.09-2.999,26.536-1.068,39.748
			c-10.703-1.789-20.398-7.385-27.3-15.758c-4.322-4.882-7.958-10.331-10.808-16.196c-2.134-4.196-7.262-5.872-11.463-3.747
			s-5.887,7.25-3.771,11.455c2.662,5.336,5.814,10.413,9.417,15.165c-32.071,57.202-81.414,86.281-146.867,86.281
			c-65.455,0-114.799-29.082-146.87-86.288c3.604-4.749,6.758-9.824,9.42-15.158c2.117-4.205,0.43-9.33-3.771-11.455
			c-4.2-2.125-9.329-0.449-11.463,3.747c-2.872,5.904-6.539,11.387-10.9,16.296c-6.883,8.329-16.548,13.886-27.208,15.646
			c1.932-13.208,1.571-26.651-1.067-39.736c12.128-1.563,23.771-5.749,34.117-12.268c2.614-1.569,4.192-4.413,4.141-7.462
			s-1.726-5.837-4.392-7.317c-2.666-1.479-5.918-1.424-8.532,0.145c-23.05,13.837-39.942,10.813-49.342,6.637
			c21.892-23.171,34.842-75.921,36.442-82.7c1.076-4.586-1.765-9.177-6.35-10.258c-0.193-0.045-0.377,0.013-0.57-0.019
			c-1.4-16.543-1.95-33.146-1.647-49.745l0.259-5.932c0-38.879,24.358-75.708,66.842-101.046l0.015-0.012
			c17.314-10.107,35.942-17.772,55.355-22.78c-1.411,3.325-2.163,5.517-2.303,5.937C186.618,71.07,189.031,75.903,193.501,77.396
			L193.501,77.396z M67.609,18.809c0.483-0.473,1.141-0.727,1.817-0.7c0.461,0.001,0.918,0.084,1.35,0.246
			c0.009,0.004,1,0.4,1.008,0.779c0.341,31.008,13.65,52.412,37.242,61.213c-34.067,25.517-54.442,58.921-57.483,94.446
			c-17.788-11.487-30.01-29.842-33.75-50.683C12.275,83.534,46.642,40.713,67.609,18.809z"/>
	</g>
</g>
<g>
</g>
<g>
</g>
<g>
</g>
<g>
</g>
<g>
</g>
<g>
</g>
<g>
</g>
<g>
</g>
<g>
</g>
<g>
</g>
<g>
</g>
<g>
</g>
<g>
</g>
<g>
</g>
<g>
</g>
</svg>
