<svg id="Capa_1" enable-background="new 0 0 512 512" height="512" viewBox="0 0 512 512" width="512" xmlns="http://www.w3.org/2000/svg"><g><path d="m447.909 344.652c-5.303-7.309-11.909-16.377-11.909-20.932 0-5.068 1.538-6.782 8.701-12.598 8.481-6.87 21.299-17.271 21.299-39.917 0-17.505-7.5-30.483-14.751-43.037-7.837-13.579-15.249-26.411-15.249-47.168 0-99.258-80.742-181-180-181s-180 81.742-180 181c0 20.757-7.412 33.589-15.249 47.168-7.251 12.554-14.751 25.532-14.751 43.037 0 22.646 12.817 33.047 21.299 39.917 7.163 5.816 8.701 7.529 8.701 12.598 0 4.556-6.606 13.623-11.909 20.933-10.166 13.989-22.837 31.406-17.505 51.021 3.853 14.224 16.274 25.752 37.939 35.215h171.475 171.475c21.665-9.463 34.087-20.991 37.939-35.215 5.332-19.615-7.339-37.032-17.505-51.022z" fill="#ff7b4a"/><path d="m465.414 395.673c5.332-19.614-7.339-37.031-17.505-51.021-5.303-7.309-11.909-16.377-11.909-20.932 0-5.068 1.538-6.782 8.701-12.598 8.481-6.87 21.299-17.271 21.299-39.917 0-17.505-7.5-30.483-14.751-43.037-7.837-13.579-15.249-26.411-15.249-47.168 0-99.258-80.742-181-180-181v430.888h171.475c21.665-9.463 34.087-20.992 37.939-35.215z" fill="#ff435b"/><path d="m331 361h-30l-30 30h-15-15l-30-30h-30c-74.559 0-135 60.441-135 135v16h210 210v-16c0-74.559-60.441-135-135-135z" fill="#5a5a5a"/><path d="m466 496c0-74.559-60.441-135-135-135h-30l-30 30h-15v121h210z" fill="#444"/><path d="m256 316h-45v75c0 24.853 20.147 45 45 45s45-20.147 45-45v-75z" fill="#fa9"/><path d="m301 391v-75h-45v120c24.853 0 45-20.147 45-45z" fill="#ff8066"/><path d="m256 121h-120v120c0 66.273 53.725 120 120 120s120-53.727 120-120v-120z" fill="#ffd5cc"/><path d="m376 241v-120h-120v240c66.275 0 120-53.727 120-120z" fill="#fa9"/><g><path d="m196 181h30v30h-30z" fill="#5a5a5a"/></g><g><path d="m286 181h30v30h-30z" fill="#444"/></g><path d="m283.642 252.646c-4.717 11.147-15.572 18.354-27.642 18.354s-22.925-7.207-27.642-18.354l-27.627 11.719c9.434 22.25 31.128 36.635 55.269 36.635s45.835-14.385 55.269-36.636z" fill="#ff7b4a"/><path d="m311.269 264.364-27.627-11.719c-4.717 11.148-15.572 18.355-27.642 18.355v30c24.141 0 45.835-14.385 55.269-36.636z" fill="#ff435b"/></g></svg>