<svg id="Filled" height="512" viewBox="0 0 512 512" width="512" xmlns="http://www.w3.org/2000/svg"><path d="m24 72h464v312h-464z" fill="#1261a0"/><path d="m256 320h200v32h-200z" fill="#b6b9ba"/><path d="m56 320h400v32h-400z" fill="#c3c6c7"/><path d="m456 48v272h-168a32 32 0 0 0 -32 32v-272a32 32 0 0 1 32-32z" fill="#e1e3e6"/><path d="m256 80v272a32 32 0 0 0 -32-32h-168v-272h168a32 32 0 0 1 32 32z" fill="#e9eef2"/><path d="m88 88h32v32h-32z" fill="#f7b030"/><path d="m88 152h32v32h-32z" fill="#eb423f"/><path d="m360 240h32v176h-32z" fill="#eb423f" transform="matrix(-1 0 0 -1 752 656)"/><path d="m392 240h32v176h-32z" fill="#f7b030" transform="matrix(-1 0 0 -1 816 656)"/><path d="m424 240h-64l24.411-74.44a7.959 7.959 0 0 1 15.178 0z" fill="#f0dfce"/><path d="m408.26 192h-32.52l8.67-26.44a7.962 7.962 0 0 1 15.18 0z" fill="#734b39"/><path d="m360 416h64v32h-64z" fill="#734b39" transform="matrix(-1 0 0 -1 784 864)"/><path d="m376 448h32a16 16 0 0 1 16 16v32a0 0 0 0 1 0 0h-64a0 0 0 0 1 0 0v-32a16 16 0 0 1 16-16z" fill="#e1e3e6" transform="matrix(-1 0 0 -1 784 944)"/><path d="m488 64h-24v-16a8 8 0 0 0 -8-8h-168a39.964 39.964 0 0 0 -32 16.028 39.964 39.964 0 0 0 -32-16.028h-168a8 8 0 0 0 -8 8v16h-24a8 8 0 0 0 -8 8v312a8 8 0 0 0 8 8h328v88a24.028 24.028 0 0 0 24 24h32a24.028 24.028 0 0 0 24-24v-88h56a8 8 0 0 0 8-8v-312a8 8 0 0 0 -8-8zm-424 264h160a24.039 24.039 0 0 1 22.624 16h-182.624zm317.536-128h20.928l10.493 32h-41.914zm5.247-16 5.217-15.91 5.217 15.91zm-34.783 160h-86.624a24.039 24.039 0 0 1 22.624-16h64zm16-96h16v160h-16zm0 176h48v16h-48zm48-16h-16v-160h16zm16-80h16v16h-16zm-144-272h160v256h-16v-72c0-.138-.014-.272-.021-.408 0-.1-.006-.2-.015-.3a8.045 8.045 0 0 0 -.115-.828c0-.012 0-.024-.006-.036a7.791 7.791 0 0 0 -.234-.889l-.007-.03-24.411-74.44a15.959 15.959 0 0 0 -30.382 0l-24.409 74.438-.007.03a7.791 7.791 0 0 0 -.234.889c0 .012 0 .024-.006.036a8.045 8.045 0 0 0 -.115.828c-.009.1-.01.2-.015.3-.007.136-.021.27-.021.408v72h-64.002a39.788 39.788 0 0 0 -24 8.022v-240.02a24.028 24.028 0 0 1 24-24zm-224 0h160a24.028 24.028 0 0 1 24 24v240.019a39.792 39.792 0 0 0 -24-8.019h-160zm-32 320v-296h16v272a8 8 0 0 0 8 8h296v16zm384 104a8.009 8.009 0 0 1 -8 8h-32a8.009 8.009 0 0 1 -8-8v-24h48zm64-104h-48v-16h24a8 8 0 0 0 8-8v-272h16z"/><path d="m88 224h80a8 8 0 0 0 0-16h-80a8 8 0 0 0 0 16z"/><path d="m224 208h-24a8 8 0 0 0 0 16h24a8 8 0 0 0 0-16z"/><path d="m232 280a8 8 0 0 0 -8-8h-80a8 8 0 0 0 0 16h80a8 8 0 0 0 8-8z"/><path d="m112 272h-24a8 8 0 0 0 0 16h24a8 8 0 0 0 0-16z"/><path d="m88 256h136a8 8 0 0 0 0-16h-136a8 8 0 0 0 0 16z"/><path d="m152 192h72a8 8 0 0 0 0-16h-72a8 8 0 0 0 0 16z"/><path d="m152 160h72a8 8 0 0 0 0-16h-72a8 8 0 0 0 0 16z"/><path d="m344 96h80a8 8 0 0 0 0-16h-80a8 8 0 0 0 0 16z"/><path d="m288 96h24a8 8 0 0 0 0-16h-24a8 8 0 0 0 0 16z"/><path d="m288 160h64a8 8 0 0 0 0-16h-64a8 8 0 0 0 0 16z"/><path d="m288 128h136a8 8 0 0 0 0-16h-136a8 8 0 0 0 0 16z"/><path d="m288 224h40a8 8 0 0 0 0-16h-40a8 8 0 0 0 0 16z"/><path d="m288 288h40a8 8 0 0 0 0-16h-40a8 8 0 0 0 0 16z"/><path d="m288 256h40a8 8 0 0 0 0-16h-40a8 8 0 0 0 0 16z"/><path d="m288 192h56a8 8 0 0 0 0-16h-56a8 8 0 0 0 0 16z"/><path d="m88 128h32a8 8 0 0 0 8-8v-32a8 8 0 0 0 -8-8h-32a8 8 0 0 0 -8 8v32a8 8 0 0 0 8 8zm8-32h16v16h-16z"/><path d="m88 192h32a8 8 0 0 0 8-8v-32a8 8 0 0 0 -8-8h-32a8 8 0 0 0 -8 8v32a8 8 0 0 0 8 8zm8-32h16v16h-16z"/><path d="m152 128h72a8 8 0 0 0 0-16h-72a8 8 0 0 0 0 16z"/><path d="m152 96h72a8 8 0 0 0 0-16h-72a8 8 0 0 0 0 16z"/></svg>