<?xml version="1.0" encoding="iso-8859-1"?>
<!-- Generator: Adobe Illustrator 18.0.0, SVG Export Plug-In . SVG Version: 6.00 Build 0)  -->
<!DOCTYPE svg PUBLIC "-//W3C//DTD SVG 1.1//EN" "http://www.w3.org/Graphics/SVG/1.1/DTD/svg11.dtd">
<svg version="1.1" id="Capa_1" xmlns="http://www.w3.org/2000/svg" xmlns:xlink="http://www.w3.org/1999/xlink" x="0px" y="0px"
	 viewBox="0 0 114.558 114.558" style="enable-background:new 0 0 114.558 114.558;" xml:space="preserve">
<g>
	<g>
		<g>
			<circle style="fill:#F0505D;" cx="58.756" cy="105.51" r="5.508"/>
		</g>
		<g>
			<path style="fill:#FFFFFF;" d="M79.715,2.953H37.792c-3.467,0-6.273,2.812-6.273,6.279V97.97v10.314
				c0,3.461,2.806,6.273,6.273,6.273h20.964h20.959c3.468,0,6.279-2.813,6.279-6.273V19.257V9.232
				C85.995,5.765,83.183,2.953,79.715,2.953z M58.756,111.019c-3.042,0-5.511-2.469-5.511-5.512c0-3.041,2.469-5.505,5.511-5.505
				c3.043,0,5.506,2.464,5.506,5.505C64.262,108.55,61.799,111.019,58.756,111.019z M82.026,97.97h-23.27H35.488V19.257h46.538
				V97.97z"/>
		</g>
		<g>
			<polygon style="fill:#20B0A8;" points="35.488,97.97 58.756,97.97 82.026,97.97 82.026,19.257 35.488,19.257 			"/>
		</g>
	</g>
	<g>
		<g>
			<path style="fill:#231F20;" d="M77.354,112.782H35.43c-3.786,0-6.867-3.079-6.867-6.865V6.866C28.563,3.08,31.644,0,35.43,0
				h41.924c3.786,0,6.866,3.08,6.866,6.866v99.051C84.22,109.703,81.14,112.782,77.354,112.782z M35.43,1.182
				c-3.135,0-5.685,2.55-5.685,5.684v99.051c0,3.134,2.55,5.685,5.685,5.685h41.924c3.135,0,5.685-2.551,5.685-5.685V6.866
				c0-3.135-2.55-5.684-5.685-5.684H35.43z"/>
		</g>
		<g>
			<path style="fill:#231F20;" d="M79.66,96.197H33.124c-0.327,0-0.591-0.265-0.591-0.591V16.895c0-0.326,0.264-0.591,0.591-0.591
				H79.66c0.326,0,0.591,0.265,0.591,0.591v78.712C80.25,95.933,79.986,96.197,79.66,96.197z M33.714,95.016h45.355v-77.53H33.714
				V95.016z"/>
		</g>
		<g>
			<path style="fill:#231F20;" d="M64.21,12.249H48.574c-0.326,0-0.591-0.265-0.591-0.591c0-0.326,0.265-0.591,0.591-0.591H64.21
				c0.327,0,0.591,0.265,0.591,0.591C64.8,11.984,64.537,12.249,64.21,12.249z"/>
		</g>
		<g>
			<path style="fill:#231F20;" d="M59.155,9.076h-5.525c-0.326,0-0.591-0.265-0.591-0.591c0-0.326,0.265-0.591,0.591-0.591h5.525
				c0.326,0,0.591,0.265,0.591,0.591C59.746,8.811,59.481,9.076,59.155,9.076z"/>
		</g>
		<g>
			<path style="fill:#231F20;" d="M56.393,109.243c-3.363,0-6.1-2.736-6.1-6.1c0-3.363,2.736-6.099,6.1-6.099
				s6.099,2.735,6.099,6.099C62.492,106.507,59.756,109.243,56.393,109.243z M56.393,98.226c-2.712,0-4.918,2.207-4.918,4.918
				c0,2.712,2.206,4.919,4.918,4.919s4.918-2.207,4.918-4.919C61.311,100.433,59.105,98.226,56.393,98.226z"/>
		</g>
	</g>
</g>
<g>
</g>
<g>
</g>
<g>
</g>
<g>
</g>
<g>
</g>
<g>
</g>
<g>
</g>
<g>
</g>
<g>
</g>
<g>
</g>
<g>
</g>
<g>
</g>
<g>
</g>
<g>
</g>
<g>
</g>
</svg>
